<svg xmlns="http://www.w3.org/2000/svg" viewBox="0 0 24 24"><path d="M12 9.86a2.139 2.139 0 1 0 0 4.278 2.139 2.139 0 1 0 0-4.278zm-5.992 6.394l-.472-.12C2.018 15.246 0 13.737 0 11.996s2.018-3.25 5.536-4.14l.472-.12.133.468a23.53 23.53 0 0 0 1.363 3.578l.1.213-.1.213a23.307 23.307 0 0 0-1.363 3.578l-.133.467zm-.69-7.305c-2.674.75-4.315 1.9-4.315 3.046s1.64 2.294 4.315 3.046a24.95 24.95 0 0 1 1.182-3.046A24.752 24.752 0 0 1 5.317 8.95zm12.675 7.305l-.133-.47a23.357 23.357 0 0 0-1.364-3.577l-.1-.213.1-.213a23.42 23.42 0 0 0 1.364-3.578l.133-.468.473.12c3.517.89 5.535 2.398 5.535 4.14s-2.018 3.25-5.535 4.14l-.473.12zm-.49-4.26c.48 1.04.877 2.06 1.182 3.046 2.675-.752 4.315-1.9 4.315-3.046s-1.64-2.294-4.315-3.046a24.788 24.788 0 0 1-1.182 3.046zM5.3 8.945l-.133-.467c-.99-3.486-.69-5.984.823-6.856 1.483-.856 3.864.155 6.36 2.716l.34.35-.34.35a23.552 23.552 0 0 0-2.422 2.967l-.135.193-.235.02a23.657 23.657 0 0 0-3.785.61l-.472.12zm1.896-6.63c-.268 0-.505.058-.705.173-.994.573-1.17 2.565-.485 5.253a25.122 25.122 0 0 1 3.233-.501 24.847 24.847 0 0 1 2.052-2.544c-1.56-1.52-3.037-2.38-4.095-2.38zm9.59 20.362c-1.425 0-3.255-1.073-5.154-3.023l-.34-.35.34-.35a23.53 23.53 0 0 0 2.421-2.968l.135-.193.234-.02a23.63 23.63 0 0 0 3.787-.609l.472-.12.134.468c.987 3.484.688 5.983-.824 6.854a2.38 2.38 0 0 1-1.205.308zm-4.096-3.38c1.56 1.52 3.037 2.38 4.095 2.38h.001c.267 0 .505-.058.704-.173.994-.573 1.17-2.566.485-5.254a25.02 25.02 0 0 1-3.234.501 24.674 24.674 0 0 1-2.051 2.545zm5.99-10.35l-.472-.12a23.479 23.479 0 0 0-3.787-.61l-.234-.02-.135-.193a23.414 23.414 0 0 0-2.421-2.967l-.34-.35.34-.35c2.494-2.56 4.874-3.57 6.36-2.716 1.512.872 1.812 3.37.824 6.855l-.134.468zM14.75 7.24c1.142.104 2.227.273 3.234.5.686-2.688.51-4.68-.485-5.253-.988-.57-2.845.304-4.8 2.208A24.849 24.849 0 0 1 14.75 7.24zM7.206 22.677A2.38 2.38 0 0 1 6 22.369c-1.512-.87-1.812-3.37-.823-6.854l.132-.468.472.12c1.155.29 2.43.496 3.785.61l.235.02.134.193a23.596 23.596 0 0 0 2.422 2.968l.34.35-.34.35c-1.898 1.95-3.728 3.023-5.15 3.023zm-1.2-6.427c-.686 2.688-.51 4.68.485 5.254.987.563 2.843-.305 4.8-2.208a24.998 24.998 0 0 1-2.052-2.545 24.976 24.976 0 0 1-3.233-.501zm5.984.628a30.68 30.68 0 0 1-2.516-.106l-.235-.02-.135-.193a30.388 30.388 0 0 1-1.35-2.122 30.354 30.354 0 0 1-1.166-2.228l-.1-.213.1-.213a30.3 30.3 0 0 1 1.166-2.228l1.35-2.122.135-.193.235-.02a29.785 29.785 0 0 1 5.033 0l.234.02.134.193a30.006 30.006 0 0 1 2.517 4.35l.1.213-.1.213a29.6 29.6 0 0 1-2.517 4.35l-.134.193-.234.02-2.517.106zm-2.197-1.084c1.48.11 2.914.11 4.395 0a29.006 29.006 0 0 0 2.196-3.798 28.585 28.585 0 0 0-2.197-3.798 29.031 29.031 0 0 0-4.394 0 28.477 28.477 0 0 0-2.197 3.798 29.114 29.114 0 0 0 2.197 3.798z"/></svg>